<?xml version="1.0" encoding="UTF-8" standalone="no"?>
<svg
        xmlns="http://www.w3.org/2000/svg" version="1.1"
        viewBox="0 0 3570 3504"
        width="845"
        height="845"
        fill="none"
        stroke="black"
        stroke-linecap="round"
        stroke-linejoin="round"
        stroke-width="1">
<g transform="translate(255, 735) scale(1 1) rotate(90 145 125)">
            
          </g>
<g transform="translate(320, 843) scale(1 1) rotate(30 145 125)">
            
          </g>
<g transform="translate(320, 1499) scale(1 1) rotate(150 145 125)">
            <path d="M.037 249.12 144.037 0l.293.212L288.075 249.48l-.33.148L0 249.48" />
          </g>
<g transform="translate(255, 1611) scale(1 1) rotate(90 145 125)">
            <path d="M.037 249.12 144.037 0l.293.212L288.075 249.48l-.33.148L0 249.48M72.037 124.56l72 41.76m72.166-41.474-72.166 41.474m-.165 83.234.165-83.234" />
          </g>
<g transform="translate(320, 1719) scale(1 1) rotate(30 145 125)">
            <path d="M.037 249.12 144.037 0l.293.212L288.075 249.48l-.33.148L0 249.48m47.899-83.16 47.58 83.209m96.628-166.468-95.851-.399m95.851 166.917 48.27-82.81"/>
          </g>
<g transform="translate(192, 1934) scale(1 1) rotate(210 145 125)">
            <path d="M.037 249.12 144.037 0l.293.212L288.075 249.48l-.33.148L0 249.48" />
          </g>
<g transform="translate(257, 2046) scale(1 1) rotate(270 145 125)">
            
          </g>
<g transform="translate(320, 2595) scale(1 1) rotate(30 145 125)">
            
          </g>
<g transform="translate(192, 2810) scale(1 1) rotate(210 145 125)">
            
          </g>
<g transform="translate(512, 732) scale(1 1) rotate(270 145 125)">
            <path d="M.037 249.12 144.037 0l.293.212L288.075 249.48l-.33.148L0 249.48m47.899-83.16 47.58 83.209m96.628-166.468-95.851-.399m95.851 166.917 48.27-82.81"/>
          </g>
<g transform="translate(448, 843) scale(1 1) rotate(330 145 125)">
            <path d="M.037 249.12 144.037 0l.293.212L288.075 249.48l-.33.148L0 249.48" /><g ><path d="m72.037 124.56 42.357 24.567 59.355.118m42.454-24.399-42.454 24.399-29.78 51.344"/><path d="m143.872 249.554.097-48.965-29.575-51.462"/></g>
          </g>
<g transform="translate(575, 1061) scale(1 1) rotate(150 145 125)">
            <path d="M.037 249.12 144.037 0l.293.212L288.075 249.48l-.33.148L0 249.48m47.899-83.16 47.58 83.209m96.628-166.468-95.851-.399m95.851 166.917 48.27-82.81"/>
          </g>
<g transform="translate(510, 1419) scale(1 -1) rotate(90 145 125)">
            <path d="M.037 249.12 144.037 0l.293.212L288.075 249.48l-.33.148L0 249.48M192.344 83.67 0 249.48" />
          </g>
<g transform="translate(575, 1281) scale(1 1) rotate(30 145 125)">
            
          </g>
<g transform="translate(447, 1496) scale(1 1) rotate(210 145 125)">
            <path d="M.037 249.12 144.037 0l.293.212L288.075 249.48l-.33.148L0 249.48m47.899-83.16 47.58 83.209m96.628-166.468-95.851-.399m95.851 166.917 48.27-82.81"/>
          </g>
<g transform="translate(512, 1608) scale(1 1) rotate(270 145 125)">
            <path d="M.037 249.12 144.037 0l.293.212L288.075 249.48l-.33.148L0 249.48" />
          </g>
<g transform="translate(448, 1719) scale(1 1) rotate(330 145 125)">
            
          </g>
<g transform="translate(575, 1937) scale(1 1) rotate(150 145 125)">
            <path d="M.037 249.12 144.037 0l.293.212L288.075 249.48l-.33.148L0 249.48M72.037 124.56l72 41.76m72.166-41.474-72.166 41.474m-.165 83.234.165-83.234" />
          </g>
<g transform="translate(510, 2049) scale(1 1) rotate(90 145 125)">
            <path d="M.037 249.12 144.037 0l.293.212L288.075 249.48l-.33.148L0 249.48" />
          </g>
<g transform="translate(575, 2157) scale(1 1) rotate(30 145 125)">
            
          </g>
<g transform="translate(447, 2372) scale(1 1) rotate(210 145 125)">
            <path d="M.037 249.12 144.037 0l.293.212L288.075 249.48l-.33.148L0 249.48" />
          </g>
<g transform="translate(512, 2484) scale(1 1) rotate(270 145 125)">
            <path d="M.037 249.12 144.037 0l.293.212L288.075 249.48l-.33.148L0 249.48m47.899-83.16 47.58 83.209m96.628-166.468-95.851-.399m95.851 166.917 48.27-82.81"/>
          </g>
<g transform="translate(448, 2595) scale(1 1) rotate(330 145 125)">
            <path d="M.037 249.12 144.037 0l.293.212L288.075 249.48l-.33.148L0 249.48" /><g ><path d="m72.037 124.56 42.357 24.567 59.355.118m42.454-24.399-42.454 24.399-29.78 51.344"/><path d="m143.872 249.554.097-48.965-29.575-51.462"/></g>
          </g>
<g transform="translate(575, 2813) scale(1 1) rotate(150 145 125)">
            <path d="M.037 249.12 144.037 0l.293.212L288.075 249.48l-.33.148L0 249.48" /><g ><path d="m72.037 124.56 42.357 24.567 59.355.118m42.454-24.399-42.454 24.399-29.78 51.344"/><path d="m143.872 249.554.097-48.965-29.575-51.462"/></g>
          </g>
<g transform="translate(830, 623) scale(1 1) rotate(150 145 125)">
            
          </g>
<g transform="translate(765, 735) scale(1 1) rotate(90 145 125)">
            <path d="M.037 249.12 144.037 0l.293.212L288.075 249.48l-.33.148L0 249.48" /><g ><path d="m72.037 124.56 42.357 24.567 59.355.118m42.454-24.399-42.454 24.399-29.78 51.344"/><path d="m143.872 249.554.097-48.965-29.575-51.462"/></g>
          </g>
<g transform="translate(830, 843) scale(1 1) rotate(30 145 125)">
            <path d="M.037 249.12 144.037 0l.293.212L288.075 249.48l-.33.148L0 249.48" />
          </g>
<g transform="translate(702, 1058) scale(1 1) rotate(210 145 125)">
            
          </g>
<g transform="translate(767, 1170) scale(1 1) rotate(270 145 125)">
            <path d="M.037 249.12 144.037 0l.293.212L288.075 249.48l-.33.148L0 249.48" />
          </g>
<g transform="translate(703, 1281) scale(1 1) rotate(330 145 125)">
            <path d="M.037 249.12 144.037 0l.293.212L288.075 249.48l-.33.148L0 249.48m47.899-83.16 47.58 83.209m96.628-166.468-95.851-.399m95.851 166.917 48.27-82.81"/>
          </g>
<g transform="translate(830, 1499) scale(1 1) rotate(150 145 125)">
            <path d="M.037 249.12 144.037 0l.293.212L288.075 249.48l-.33.148L0 249.48M72.037 124.56l72 41.76m72.166-41.474-72.166 41.474m-.165 83.234.165-83.234" />
          </g>
<g transform="translate(765, 1611) scale(1 1) rotate(90 145 125)">
            <path d="M.037 249.12 144.037 0l.293.212L288.075 249.48l-.33.148L0 249.48" /><g ><path d="m72.037 124.56 42.357 24.567 59.355.118m42.454-24.399-42.454 24.399-29.78 51.344"/><path d="m143.872 249.554.097-48.965-29.575-51.462"/></g>
          </g>
<g transform="translate(830, 1719) scale(1 1) rotate(30 145 125)">
            <path d="M.037 249.12 144.037 0l.293.212L288.075 249.48l-.33.148L0 249.48m47.899-83.16 47.58 83.209m96.628-166.468-95.851-.399m95.851 166.917 48.27-82.81"/>
          </g>
<g transform="translate(702, 1934) scale(1 1) rotate(210 145 125)">
            <path d="M.037 249.12 144.037 0l.293.212L288.075 249.48l-.33.148L0 249.48m47.899-83.16 47.58 83.209m96.628-166.468-95.851-.399m95.851 166.917 48.27-82.81"/>
          </g>
<g transform="translate(767, 2046) scale(1 1) rotate(270 145 125)">
            <path d="M.037 249.12 144.037 0l.293.212L288.075 249.48l-.33.148L0 249.48m0 0L176.44 55.893m-64.805 0 176.44 193.587" />
          </g>
<g transform="translate(703, 2157) scale(1 1) rotate(330 145 125)">
            <path d="M.037 249.12 144.037 0l.293.212L288.075 249.48l-.33.148L0 249.48M72.037 124.56l72 41.76m72.166-41.474-72.166 41.474m-.165 83.234.165-83.234" />
          </g>
<g transform="translate(830, 2375) scale(1 1) rotate(150 145 125)">
            
          </g>
<g transform="translate(830, 2595) scale(1 1) rotate(30 145 125)">
            
          </g>
<g transform="translate(702, 2810) scale(1 1) rotate(210 145 125)">
            <path d="M.037 249.12 144.037 0l.293.212L288.075 249.48l-.33.148L0 249.48" /><g ><path d="m72.037 124.56 42.357 24.567 59.355.118m42.454-24.399-42.454 24.399-29.78 51.344"/><path d="m143.872 249.554.097-48.965-29.575-51.462"/></g>
          </g>
<g transform="translate(767, 2922) scale(1 1) rotate(270 145 125)">
            
          </g>
<g transform="translate(1085, 185) scale(1 1) rotate(150 145 125)">
            
          </g>
<g transform="translate(1020, 297) scale(1 1) rotate(90 145 125)">
            <path d="M.037 249.12 144.037 0l.293.212L288.075 249.48l-.33.148L0 249.48m0 0L176.44 55.893m-64.805 0 176.44 193.587" />
          </g>
<g transform="translate(1085, 405) scale(1 1) rotate(30 145 125)">
            <path d="M.037 249.12 144.037 0l.293.212L288.075 249.48l-.33.148L0 249.48" /><g ><path d="m72.037 124.56 42.357 24.567 59.355.118m42.454-24.399-42.454 24.399-29.78 51.344"/><path d="m143.872 249.554.097-48.965-29.575-51.462"/></g>
          </g>
<g transform="translate(957, 620) scale(1 1) rotate(210 145 125)">
            <path d="M.037 249.12 144.037 0l.293.212L288.075 249.48l-.33.148L0 249.48m0 0L176.44 55.893m-64.805 0 176.44 193.587" />
          </g>
<g transform="translate(1022, 732) scale(1 1) rotate(270 145 125)">
            <g ><path d="M.037 249.12 144.037 0l.293.212L288.075 249.48l-.33.148L0 249.48"/><path d="M143.872 249.554 72.39 207.686l-.352-83.126"/><path d="m72.037 124.56 72-40.973 72.166 41.26"/><path d="m216.203 124.846-.517 82.84-71.814 41.868M0 249.48l72.389-41.794M144.037 0v83.587M288.075 249.48l-72.389-41.794"/></g>
          </g>
<g transform="translate(958, 843) scale(1 1) rotate(330 145 125)">
            <path d="M.037 249.12 144.037 0l.293.212L288.075 249.48l-.33.148L0 249.48m0 0L176.44 55.893m-64.805 0 176.44 193.587" />
          </g>
<g transform="translate(1085, 1061) scale(1 1) rotate(150 145 125)">
            <path d="M.037 249.12 144.037 0l.293.212L288.075 249.48l-.33.148L0 249.48m0 0L176.44 55.893m-64.805 0 176.44 193.587" />
          </g>
<g transform="translate(1020, 1173) scale(1 1) rotate(90 145 125)">
            <path d="M.037 249.12 144.037 0l.293.212L288.075 249.48l-.33.148L0 249.48m0 0L176.44 55.893m-64.805 0 176.44 193.587" />
          </g>
<g transform="translate(1085, 1281) scale(1 1) rotate(30 145 125)">
            <path d="M.037 249.12 144.037 0l.293.212L288.075 249.48l-.33.148L0 249.48m0 0L176.44 55.893m-64.805 0 176.44 193.587" />
          </g>
<g transform="translate(957, 1496) scale(1 1) rotate(210 145 125)">
            <g ><path d="M.037 249.12 144.037 0l.293.212L288.075 249.48l-.33.148L0 249.48"/><path d="M143.872 249.554 72.39 207.686l-.352-83.126"/><path d="m72.037 124.56 72-40.973 72.166 41.26"/><path d="m216.203 124.846-.517 82.84-71.814 41.868M0 249.48l72.389-41.794M144.037 0v83.587M288.075 249.48l-72.389-41.794"/></g>
          </g>
<g transform="translate(1022, 1608) scale(1 1) rotate(270 145 125)">
            <path d="M.037 249.12 144.037 0l.293.212L288.075 249.48l-.33.148L0 249.48M59.968 145.44l168.193.143m-24.006-41.629-84.22 145.588m48.055.024-83.973-145.73" />
          </g>
<g transform="translate(958, 1719) scale(1 1) rotate(330 145 125)">
            <path d="M.037 249.12 144.037 0l.293.212L288.075 249.48l-.33.148L0 249.48" /><g ><path d="m72.037 124.56 42.357 24.567 59.355.118m42.454-24.399-42.454 24.399-29.78 51.344"/><path d="m143.872 249.554.097-48.965-29.575-51.462"/></g>
          </g>
<g transform="translate(1085, 1937) scale(1 1) rotate(150 145 125)">
            <path d="M.037 249.12 144.037 0l.293.212L288.075 249.48l-.33.148L0 249.48m0 0L176.44 55.893m-64.805 0 176.44 193.587" />
          </g>
<g transform="translate(1020, 2049) scale(1 1) rotate(90 145 125)">
            <g ><path d="M.037 249.12 144.037 0l.293.212L288.075 249.48l-.33.148L0 249.48"/><path d="M143.872 249.554 72.39 207.686l-.352-83.126"/><path d="m72.037 124.56 72-40.973 72.166 41.26"/><path d="m216.203 124.846-.517 82.84-71.814 41.868M0 249.48l72.389-41.794M144.037 0v83.587M288.075 249.48l-72.389-41.794"/></g>
          </g>
<g transform="translate(1085, 2157) scale(1 1) rotate(30 145 125)">
            <path d="M.037 249.12 144.037 0l.293.212L288.075 249.48l-.33.148L0 249.48m0 0L176.44 55.893m-64.805 0 176.44 193.587" />
          </g>
<g transform="translate(957, 2372) scale(1 1) rotate(210 145 125)">
            <path d="M.037 249.12 144.037 0l.293.212L288.075 249.48l-.33.148L0 249.48m0 0L176.44 55.893m-64.805 0 176.44 193.587" />
          </g>
<g transform="translate(1022, 2484) scale(1 1) rotate(270 145 125)">
            <path d="M.037 249.12 144.037 0l.293.212L288.075 249.48l-.33.148L0 249.48m0 0L176.44 55.893m-64.805 0 176.44 193.587" />
          </g>
<g transform="translate(958, 2595) scale(1 1) rotate(330 145 125)">
            <path d="M.037 249.12 144.037 0l.293.212L288.075 249.48l-.33.148L0 249.48m0 0L176.44 55.893m-64.805 0 176.44 193.587" />
          </g>
<g transform="translate(1085, 2813) scale(1 1) rotate(150 145 125)">
            <g ><path d="M.037 249.12 144.037 0l.293.212L288.075 249.48l-.33.148L0 249.48"/><path d="M143.872 249.554 72.39 207.686l-.352-83.126"/><path d="m72.037 124.56 72-40.973 72.166 41.26"/><path d="m216.203 124.846-.517 82.84-71.814 41.868M0 249.48l72.389-41.794M144.037 0v83.587M288.075 249.48l-72.389-41.794"/></g>
          </g>
<g transform="translate(1020, 2925) scale(1 1) rotate(90 145 125)">
            <path d="M.037 249.12 144.037 0l.293.212L288.075 249.48l-.33.148L0 249.48" /><g ><path d="m72.037 124.56 42.357 24.567 59.355.118m42.454-24.399-42.454 24.399-29.78 51.344"/><path d="m143.872 249.554.097-48.965-29.575-51.462"/></g>
          </g>
<g transform="translate(1085, 3033) scale(1 1) rotate(30 145 125)">
            <path d="M.037 249.12 144.037 0l.293.212L288.075 249.48l-.33.148L0 249.48m0 0L176.44 55.893m-64.805 0 176.44 193.587" />
          </g>
<g transform="translate(957, 3500) scale(1 -1) rotate(330 145 125)">
            <path d="M.037 249.12 144.037 0l.293.212L288.075 249.48l-.33.148L0 249.48M192.344 83.67 0 249.48" />
          </g>
<g transform="translate(1277, 294) scale(1 1) rotate(270 145 125)">
            <path d="M.037 249.12 144.037 0l.293.212L288.075 249.48l-.33.148L0 249.48M192.344 83.67 0 249.48" />
          </g>
<g transform="translate(1213, 405) scale(1 1) rotate(330 145 125)">
            <path d="M.037 249.12 144.037 0l.293.212L288.075 249.48l-.33.148L0 249.48m47.899-83.16 47.58 83.209m96.628-166.468-95.851-.399m95.851 166.917 48.27-82.81"/>
          </g>
<g transform="translate(1340, 623) scale(1 1) rotate(150 145 125)">
            <path d="M.037 249.12 144.037 0l.293.212L288.075 249.48l-.33.148L0 249.48" />
          </g>
<g transform="translate(1275, 735) scale(1 1) rotate(90 145 125)">
            <path d="M.037 249.12 144.037 0l.293.212L288.075 249.48l-.33.148L0 249.48" /><g ><path d="m72.037 124.56 42.357 24.567 59.355.118m42.454-24.399-42.454 24.399-29.78 51.344"/><path d="m143.872 249.554.097-48.965-29.575-51.462"/></g>
          </g>
<g transform="translate(1340, 843) scale(1 1) rotate(30 145 125)">
            <path d="M.037 249.12 144.037 0l.293.212L288.075 249.48l-.33.148L0 249.48" /><g ><path d="m72.037 124.56 42.357 24.567 59.355.118m42.454-24.399-42.454 24.399-29.78 51.344"/><path d="m143.872 249.554.097-48.965-29.575-51.462"/></g>
          </g>
<g transform="translate(1212, 1058) scale(1 1) rotate(210 145 125)">
            <path d="M.037 249.12 144.037 0l.293.212L288.075 249.48l-.33.148L0 249.48" /><g ><path d="m72.037 124.56 42.357 24.567 59.355.118m42.454-24.399-42.454 24.399-29.78 51.344"/><path d="m143.872 249.554.097-48.965-29.575-51.462"/></g>
          </g>
<g transform="translate(1277, 1170) scale(1 1) rotate(270 145 125)">
            <path d="M.037 249.12 144.037 0l.293.212L288.075 249.48l-.33.148L0 249.48M192.344 83.67 0 249.48" />
          </g>
<g transform="translate(1213, 1281) scale(1 1) rotate(330 145 125)">
            
          </g>
<g transform="translate(1213, 2157) scale(1 1) rotate(330 145 125)">
            
          </g>
<g transform="translate(1340, 2375) scale(1 1) rotate(150 145 125)">
            <path d="M.037 249.12 144.037 0l.293.212L288.075 249.48l-.33.148L0 249.48M192.344 83.67 0 249.48" />
          </g>
<g transform="translate(1275, 2487) scale(1 1) rotate(90 145 125)">
            <path d="M.037 249.12 144.037 0l.293.212L288.075 249.48l-.33.148L0 249.48" /><g ><path d="m72.037 124.56 42.357 24.567 59.355.118m42.454-24.399-42.454 24.399-29.78 51.344"/><path d="m143.872 249.554.097-48.965-29.575-51.462"/></g>
          </g>
<g transform="translate(1340, 2595) scale(1 1) rotate(30 145 125)">
            <path d="M.037 249.12 144.037 0l.293.212L288.075 249.48l-.33.148L0 249.48" /><g ><path d="m72.037 124.56 42.357 24.567 59.355.118m42.454-24.399-42.454 24.399-29.78 51.344"/><path d="m143.872 249.554.097-48.965-29.575-51.462"/></g>
          </g>
<g transform="translate(1212, 2810) scale(1 1) rotate(210 145 125)">
            <path d="M.037 249.12 144.037 0l.293.212L288.075 249.48l-.33.148L0 249.48m0 0L176.44 55.893m-64.805 0 176.44 193.587" />
          </g>
<g transform="translate(1277, 2922) scale(1 1) rotate(270 145 125)">
            <path d="M.037 249.12 144.037 0l.293.212L288.075 249.48l-.33.148L0 249.48m47.899-83.16 47.58 83.209m96.628-166.468-95.851-.399m95.851 166.917 48.27-82.81"/>
          </g>
<g transform="translate(1213, 3033) scale(1 1) rotate(330 145 125)">
            <path d="M.037 249.12 144.037 0l.293.212L288.075 249.48l-.33.148L0 249.48m47.899-83.16 47.58 83.209m96.628-166.468-95.851-.399m95.851 166.917 48.27-82.81"/>
          </g>
<g transform="translate(1530, 297) scale(1 1) rotate(90 145 125)">
            
          </g>
<g transform="translate(1595, 405) scale(1 1) rotate(30 145 125)">
            <path d="M.037 249.12 144.037 0l.293.212L288.075 249.48l-.33.148L0 249.48m47.899-83.16 47.58 83.209m96.628-166.468-95.851-.399m95.851 166.917 48.27-82.81"/>
          </g>
<g transform="translate(1467, 620) scale(1 1) rotate(210 145 125)">
            <path d="M.037 249.12 144.037 0l.293.212L288.075 249.48l-.33.148L0 249.48M59.968 145.44l168.193.143m-24.006-41.629-84.22 145.588m48.055.024-83.973-145.73" />
          </g>
<g transform="translate(1532, 732) scale(1 1) rotate(270 145 125)">
            <path d="M.037 249.12 144.037 0l.293.212L288.075 249.48l-.33.148L0 249.48M59.968 145.44l168.193.143m-24.006-41.629-84.22 145.588m48.055.024-83.973-145.73" />
          </g>
<g transform="translate(1468, 843) scale(1 1) rotate(330 145 125)">
            <path d="M.037 249.12 144.037 0l.293.212L288.075 249.48l-.33.148L0 249.48m47.899-83.16 47.58 83.209m96.628-166.468-95.851-.399m95.851 166.917 48.27-82.81"/>
          </g>
<g transform="translate(1595, 1061) scale(1 1) rotate(150 145 125)">
            
          </g>
<g transform="translate(1467, 2372) scale(1 1) rotate(210 145 125)">
            
          </g>
<g transform="translate(1532, 2484) scale(1 1) rotate(270 145 125)">
            <path d="M.037 249.12 144.037 0l.293.212L288.075 249.48l-.33.148L0 249.48M192.344 83.67 0 249.48" />
          </g>
<g transform="translate(1468, 2595) scale(1 1) rotate(330 145 125)">
            <path d="M.037 249.12 144.037 0l.293.212L288.075 249.48l-.33.148L0 249.48m47.899-83.16 47.58 83.209m96.628-166.468-95.851-.399m95.851 166.917 48.27-82.81"/>
          </g>
<g transform="translate(1595, 2813) scale(1 1) rotate(150 145 125)">
            <path d="M.037 249.12 144.037 0l.293.212L288.075 249.48l-.33.148L0 249.48M59.968 145.44l168.193.143m-24.006-41.629-84.22 145.588m48.055.024-83.973-145.73" />
          </g>
<g transform="translate(1530, 2925) scale(1 1) rotate(90 145 125)">
            <path d="M.037 249.12 144.037 0l.293.212L288.075 249.48l-.33.148L0 249.48m0 0L176.44 55.893m-64.805 0 176.44 193.587" />
          </g>
<g transform="translate(1595, 3033) scale(1 1) rotate(30 145 125)">
            <path d="M.037 249.12 144.037 0l.293.212L288.075 249.48l-.33.148L0 249.48M72.037 124.56l72 41.76m72.166-41.474-72.166 41.474m-.165 83.234.165-83.234" />
          </g>
<g transform="translate(1467, 3248) scale(1 1) rotate(210 145 125)">
            
          </g>
<g transform="translate(1722, 182) scale(1 1) rotate(210 145 125)">
            
          </g>
<g transform="translate(1787, 294) scale(1 1) rotate(270 145 125)">
            <path d="M.037 249.12 144.037 0l.293.212L288.075 249.48l-.33.148L0 249.48m0 0L176.44 55.893m-64.805 0 176.44 193.587" />
          </g>
<g transform="translate(1723, 405) scale(1 1) rotate(330 145 125)">
            <path d="M.037 249.12 144.037 0l.293.212L288.075 249.48l-.33.148L0 249.48M72.037 124.56l72 41.76m72.166-41.474-72.166 41.474m-.165 83.234.165-83.234" />
          </g>
<g transform="translate(1850, 623) scale(1 1) rotate(150 145 125)">
            <path d="M.037 249.12 144.037 0l.293.212L288.075 249.48l-.33.148L0 249.48m47.899-83.16 47.58 83.209m96.628-166.468-95.851-.399m95.851 166.917 48.27-82.81"/>
          </g>
<g transform="translate(1785, 735) scale(1 1) rotate(90 145 125)">
            <path d="M.037 249.12 144.037 0l.293.212L288.075 249.48l-.33.148L0 249.48m0 0L176.44 55.893m-64.805 0 176.44 193.587" />
          </g>
<g transform="translate(1850, 843) scale(1 1) rotate(30 145 125)">
            <path d="M.037 249.12 144.037 0l.293.212L288.075 249.48l-.33.148L0 249.48" />
          </g>
<g transform="translate(1785, 2487) scale(1 1) rotate(90 145 125)">
            
          </g>
<g transform="translate(1850, 2595) scale(1 1) rotate(30 145 125)">
            <path d="M.037 249.12 144.037 0l.293.212L288.075 249.48l-.33.148L0 249.48" /><g ><path d="m72.037 124.56 42.357 24.567 59.355.118m42.454-24.399-42.454 24.399-29.78 51.344"/><path d="m143.872 249.554.097-48.965-29.575-51.462"/></g>
          </g>
<g transform="translate(1722, 2810) scale(1 1) rotate(210 145 125)">
            <path d="M.037 249.12 144.037 0l.293.212L288.075 249.48l-.33.148L0 249.48M59.968 145.44l168.193.143m-24.006-41.629-84.22 145.588m48.055.024-83.973-145.73" />
          </g>
<g transform="translate(1787, 2922) scale(1 1) rotate(270 145 125)">
            <path d="M.037 249.12 144.037 0l.293.212L288.075 249.48l-.33.148L0 249.48" />
          </g>
<g transform="translate(1722, 3282) scale(1 -1) rotate(210 145 125)">
            <path d="M.037 249.12 144.037 0l.293.212L288.075 249.48l-.33.148L0 249.48M192.344 83.67 0 249.48" />
          </g>
<g transform="translate(1850, 3251) scale(1 1) rotate(150 145 125)">
            <path d="M.037 249.12 144.037 0l.293.212L288.075 249.48l-.33.148L0 249.48m0 0L176.44 55.893m-64.805 0 176.44 193.587" />
          </g>
<g transform="translate(1785, 3363) scale(1 1) rotate(90 145 125)">
            <path d="M.037 249.12 144.037 0l.293.212L288.075 249.48l-.33.148L0 249.48" />
          </g>
<g transform="translate(2040, 297) scale(1 1) rotate(90 145 125)">
            
          </g>
<g transform="translate(2105, 405) scale(1 1) rotate(30 145 125)">
            <path d="M.037 249.12 144.037 0l.293.212L288.075 249.48l-.33.148L0 249.48m47.899-83.16 47.58 83.209m96.628-166.468-95.851-.399m95.851 166.917 48.27-82.81"/>
          </g>
<g transform="translate(1977, 620) scale(1 1) rotate(210 145 125)">
            <path d="M.037 249.12 144.037 0l.293.212L288.075 249.48l-.33.148L0 249.48m0 0L176.44 55.893m-64.805 0 176.44 193.587" />
          </g>
<g transform="translate(2042, 732) scale(1 1) rotate(270 145 125)">
            <path d="M.037 249.12 144.037 0l.293.212L288.075 249.48l-.33.148L0 249.48M59.968 145.44l168.193.143m-24.006-41.629-84.22 145.588m48.055.024-83.973-145.73" />
          </g>
<g transform="translate(1978, 843) scale(1 1) rotate(330 145 125)">
            <path d="M.037 249.12 144.037 0l.293.212L288.075 249.48l-.33.148L0 249.48m0 0L176.44 55.893m-64.805 0 176.44 193.587" />
          </g>
<g transform="translate(2105, 1061) scale(1 1) rotate(150 145 125)">
            
          </g>
<g transform="translate(2042, 2484) scale(1 1) rotate(270 145 125)">
            <path d="M.037 249.12 144.037 0l.293.212L288.075 249.48l-.33.148L0 249.48m47.899-83.16 47.58 83.209m96.628-166.468-95.851-.399m95.851 166.917 48.27-82.81"/>
          </g>
<g transform="translate(1978, 2595) scale(1 1) rotate(330 145 125)">
            <path d="M.037 249.12 144.037 0l.293.212L288.075 249.48l-.33.148L0 249.48" /><g ><path d="m72.037 124.56 42.357 24.567 59.355.118m42.454-24.399-42.454 24.399-29.78 51.344"/><path d="m143.872 249.554.097-48.965-29.575-51.462"/></g>
          </g>
<g transform="translate(2105, 2813) scale(1 1) rotate(150 145 125)">
            <path d="M.037 249.12 144.037 0l.293.212L288.075 249.48l-.33.148L0 249.48m0 0L176.44 55.893m-64.805 0 176.44 193.587" />
          </g>
<g transform="translate(2040, 2925) scale(1 1) rotate(90 145 125)">
            <path d="M.037 249.12 144.037 0l.293.212L288.075 249.48l-.33.148L0 249.48m0 0L176.44 55.893m-64.805 0 176.44 193.587" />
          </g>
<g transform="translate(2105, 3033) scale(1 1) rotate(30 145 125)">
            <path d="M.037 249.12 144.037 0l.293.212L288.075 249.48l-.33.148L0 249.48M72.037 124.56l72 41.76m72.166-41.474-72.166 41.474m-.165 83.234.165-83.234" />
          </g>
<g transform="translate(1977, 3248) scale(1 1) rotate(210 145 125)">
            
          </g>
<g transform="translate(2232, 182) scale(1 1) rotate(210 145 125)">
            
          </g>
<g transform="translate(2297, 294) scale(1 1) rotate(270 145 125)">
            <path d="M.037 249.12 144.037 0l.293.212L288.075 249.48l-.33.148L0 249.48M72.037 124.56l72 41.76m72.166-41.474-72.166 41.474m-.165 83.234.165-83.234" />
          </g>
<g transform="translate(2233, 405) scale(1 1) rotate(330 145 125)">
            <path d="M.037 249.12 144.037 0l.293.212L288.075 249.48l-.33.148L0 249.48" />
          </g>
<g transform="translate(2360, 623) scale(1 1) rotate(150 145 125)">
            
          </g>
<g transform="translate(2295, 735) scale(1 1) rotate(90 145 125)">
            <path d="M.037 249.12 144.037 0l.293.212L288.075 249.48l-.33.148L0 249.48" /><g ><path d="m72.037 124.56 42.357 24.567 59.355.118m42.454-24.399-42.454 24.399-29.78 51.344"/><path d="m143.872 249.554.097-48.965-29.575-51.462"/></g>
          </g>
<g transform="translate(2360, 843) scale(1 1) rotate(30 145 125)">
            <path d="M.037 249.12 144.037 0l.293.212L288.075 249.48l-.33.148L0 249.48" />
          </g>
<g transform="translate(2232, 1058) scale(1 1) rotate(210 145 125)">
            <path d="M.037 249.12 144.037 0l.293.212L288.075 249.48l-.33.148L0 249.48m0 0L176.44 55.893m-64.805 0 176.44 193.587" />
          </g>
<g transform="translate(2297, 1170) scale(1 1) rotate(270 145 125)">
            <path d="M.037 249.12 144.037 0l.293.212L288.075 249.48l-.33.148L0 249.48m0 0L176.44 55.893m-64.805 0 176.44 193.587" />
          </g>
<g transform="translate(2233, 1281) scale(1 1) rotate(330 145 125)">
            <path d="M.037 249.12 144.037 0l.293.212L288.075 249.48l-.33.148L0 249.48m47.899-83.16 47.58 83.209m96.628-166.468-95.851-.399m95.851 166.917 48.27-82.81"/>
          </g>
<g transform="translate(2360, 1499) scale(1 1) rotate(150 145 125)">
            <path d="M.037 249.12 144.037 0l.293.212L288.075 249.48l-.33.148L0 249.48" />
          </g>
<g transform="translate(2295, 1611) scale(1 1) rotate(90 145 125)">
            
          </g>
<g transform="translate(2232, 1934) scale(1 1) rotate(210 145 125)">
            
          </g>
<g transform="translate(2297, 2046) scale(1 1) rotate(270 145 125)">
            <path d="M.037 249.12 144.037 0l.293.212L288.075 249.48l-.33.148L0 249.48" />
          </g>
<g transform="translate(2233, 2157) scale(1 1) rotate(330 145 125)">
            <path d="M.037 249.12 144.037 0l.293.212L288.075 249.48l-.33.148L0 249.48m47.899-83.16 47.58 83.209m96.628-166.468-95.851-.399m95.851 166.917 48.27-82.81"/>
          </g>
<g transform="translate(2360, 2375) scale(1 1) rotate(150 145 125)">
            <path d="M.037 249.12 144.037 0l.293.212L288.075 249.48l-.33.148L0 249.48m0 0L176.44 55.893m-64.805 0 176.44 193.587" />
          </g>
<g transform="translate(2295, 2487) scale(1 1) rotate(90 145 125)">
            <path d="M.037 249.12 144.037 0l.293.212L288.075 249.48l-.33.148L0 249.48M72.037 124.56l72 41.76m72.166-41.474-72.166 41.474m-.165 83.234.165-83.234" />
          </g>
<g transform="translate(2360, 2595) scale(1 1) rotate(30 145 125)">
            <path d="M.037 249.12 144.037 0l.293.212L288.075 249.48l-.33.148L0 249.48" />
          </g>
<g transform="translate(2232, 2810) scale(1 1) rotate(210 145 125)">
            <path d="M.037 249.12 144.037 0l.293.212L288.075 249.48l-.33.148L0 249.48" /><g ><path d="m72.037 124.56 42.357 24.567 59.355.118m42.454-24.399-42.454 24.399-29.78 51.344"/><path d="m143.872 249.554.097-48.965-29.575-51.462"/></g>
          </g>
<g transform="translate(2297, 2922) scale(1 1) rotate(270 145 125)">
            
          </g>
<g transform="translate(2233, 3033) scale(1 1) rotate(330 145 125)">
            <path d="M.037 249.12 144.037 0l.293.212L288.075 249.48l-.33.148L0 249.48m47.899-83.16 47.58 83.209m96.628-166.468-95.851-.399m95.851 166.917 48.27-82.81"/>
          </g>
<g transform="translate(2360, 3251) scale(1 1) rotate(150 145 125)">
            <path d="M.037 249.12 144.037 0l.293.212L288.075 249.48l-.33.148L0 249.48" />
          </g>
<g transform="translate(2615, 185) scale(1 1) rotate(150 145 125)">
            <path d="M.037 249.12 144.037 0l.293.212L288.075 249.48l-.33.148L0 249.48" />
          </g>
<g transform="translate(2550, 297) scale(1 1) rotate(90 145 125)">
            <path d="M.037 249.12 144.037 0l.293.212L288.075 249.48l-.33.148L0 249.48M72.037 124.56l72 41.76m72.166-41.474-72.166 41.474m-.165 83.234.165-83.234" />
          </g>
<g transform="translate(2615, 405) scale(1 1) rotate(30 145 125)">
            <path d="M.037 249.12 144.037 0l.293.212L288.075 249.48l-.33.148L0 249.48M192.344 83.67 0 249.48" />
          </g>
<g transform="translate(2487, 620) scale(1 1) rotate(210 145 125)">
            <path d="M.037 249.12 144.037 0l.293.212L288.075 249.48l-.33.148L0 249.48M72.037 124.56l72 41.76m72.166-41.474-72.166 41.474m-.165 83.234.165-83.234" />
          </g>
<g transform="translate(2552, 732) scale(1 1) rotate(270 145 125)">
            <path d="M.037 249.12 144.037 0l.293.212L288.075 249.48l-.33.148L0 249.48" /><g ><path d="m72.037 124.56 42.357 24.567 59.355.118m42.454-24.399-42.454 24.399-29.78 51.344"/><path d="m143.872 249.554.097-48.965-29.575-51.462"/></g>
          </g>
<g transform="translate(2488, 843) scale(1 1) rotate(330 145 125)">
            <path d="M.037 249.12 144.037 0l.293.212L288.075 249.48l-.33.148L0 249.48M72.037 124.56l72 41.76m72.166-41.474-72.166 41.474m-.165 83.234.165-83.234" />
          </g>
<g transform="translate(2615, 1061) scale(1 1) rotate(150 145 125)">
            <path d="M.037 249.12 144.037 0l.293.212L288.075 249.48l-.33.148L0 249.48m47.899-83.16 47.58 83.209m96.628-166.468-95.851-.399m95.851 166.917 48.27-82.81"/>
          </g>
<g transform="translate(2550, 1173) scale(1 1) rotate(90 145 125)">
            <path d="M.037 249.12 144.037 0l.293.212L288.075 249.48l-.33.148L0 249.48" /><g ><path d="m72.037 124.56 42.357 24.567 59.355.118m42.454-24.399-42.454 24.399-29.78 51.344"/><path d="m143.872 249.554.097-48.965-29.575-51.462"/></g>
          </g>
<g transform="translate(2615, 1281) scale(1 1) rotate(30 145 125)">
            <path d="M.037 249.12 144.037 0l.293.212L288.075 249.48l-.33.148L0 249.48m47.899-83.16 47.58 83.209m96.628-166.468-95.851-.399m95.851 166.917 48.27-82.81"/>
          </g>
<g transform="translate(2487, 1496) scale(1 1) rotate(210 145 125)">
            <path d="M.037 249.12 144.037 0l.293.212L288.075 249.48l-.33.148L0 249.48m0 0L176.44 55.893m-64.805 0 176.44 193.587" />
          </g>
<g transform="translate(2552, 1608) scale(1 1) rotate(270 145 125)">
            <path d="M.037 249.12 144.037 0l.293.212L288.075 249.48l-.33.148L0 249.48" /><g ><path d="m72.037 124.56 42.357 24.567 59.355.118m42.454-24.399-42.454 24.399-29.78 51.344"/><path d="m143.872 249.554.097-48.965-29.575-51.462"/></g>
          </g>
<g transform="translate(2488, 1719) scale(1 1) rotate(330 145 125)">
            <path d="M.037 249.12 144.037 0l.293.212L288.075 249.48l-.33.148L0 249.48M72.037 124.56l72 41.76m72.166-41.474-72.166 41.474m-.165 83.234.165-83.234" />
          </g>
<g transform="translate(2615, 1937) scale(1 1) rotate(150 145 125)">
            <path d="M.037 249.12 144.037 0l.293.212L288.075 249.48l-.33.148L0 249.48m47.899-83.16 47.58 83.209m96.628-166.468-95.851-.399m95.851 166.917 48.27-82.81"/>
          </g>
<g transform="translate(2550, 2049) scale(1 1) rotate(90 145 125)">
            <path d="M.037 249.12 144.037 0l.293.212L288.075 249.48l-.33.148L0 249.48m0 0L176.44 55.893m-64.805 0 176.44 193.587" />
          </g>
<g transform="translate(2615, 2157) scale(1 1) rotate(30 145 125)">
            <path d="M.037 249.12 144.037 0l.293.212L288.075 249.48l-.33.148L0 249.48M59.968 145.44l168.193.143m-24.006-41.629-84.22 145.588m48.055.024-83.973-145.73" />
          </g>
<g transform="translate(2487, 2372) scale(1 1) rotate(210 145 125)">
            <path d="M.037 249.12 144.037 0l.293.212L288.075 249.48l-.33.148L0 249.48" /><g ><path d="m72.037 124.56 42.357 24.567 59.355.118m42.454-24.399-42.454 24.399-29.78 51.344"/><path d="m143.872 249.554.097-48.965-29.575-51.462"/></g>
          </g>
<g transform="translate(2552, 2484) scale(1 1) rotate(270 145 125)">
            <path d="M.037 249.12 144.037 0l.293.212L288.075 249.48l-.33.148L0 249.48M192.344 83.67 0 249.48" />
          </g>
<g transform="translate(2488, 2595) scale(1 1) rotate(330 145 125)">
            <path d="M.037 249.12 144.037 0l.293.212L288.075 249.48l-.33.148L0 249.48M72.037 124.56l72 41.76m72.166-41.474-72.166 41.474m-.165 83.234.165-83.234" />
          </g>
<g transform="translate(2615, 2813) scale(1 1) rotate(150 145 125)">
            <path d="M.037 249.12 144.037 0l.293.212L288.075 249.48l-.33.148L0 249.48m0 0L176.44 55.893m-64.805 0 176.44 193.587" />
          </g>
<g transform="translate(2550, 2925) scale(1 1) rotate(90 145 125)">
            <path d="M.037 249.12 144.037 0l.293.212L288.075 249.48l-.33.148L0 249.48M72.037 124.56l72 41.76m72.166-41.474-72.166 41.474m-.165 83.234.165-83.234" />
          </g>
<g transform="translate(2615, 3033) scale(1 1) rotate(30 145 125)">
            <path d="M.037 249.12 144.037 0l.293.212L288.075 249.48l-.33.148L0 249.48m47.899-83.16 47.58 83.209m96.628-166.468-95.851-.399m95.851 166.917 48.27-82.81"/>
          </g>
<g transform="translate(2487, 3248) scale(1 1) rotate(210 145 125)">
            <path d="M.037 249.12 144.037 0l.293.212L288.075 249.48l-.33.148L0 249.48" />
          </g>
<g transform="translate(2870, 623) scale(1 1) rotate(150 145 125)">
            
          </g>
<g transform="translate(2805, 735) scale(1 1) rotate(90 145 125)">
            <path d="M.037 249.12 144.037 0l.293.212L288.075 249.48l-.33.148L0 249.48" /><g ><path d="m72.037 124.56 42.357 24.567 59.355.118m42.454-24.399-42.454 24.399-29.78 51.344"/><path d="m143.872 249.554.097-48.965-29.575-51.462"/></g>
          </g>
<g transform="translate(2870, 843) scale(1 1) rotate(30 145 125)">
            <path d="M.037 249.12 144.037 0l.293.212L288.075 249.48l-.33.148L0 249.48" />
          </g>
<g transform="translate(2742, 1058) scale(1 1) rotate(210 145 125)">
            
          </g>
<g transform="translate(2807, 1170) scale(1 1) rotate(270 145 125)">
            <path d="M.037 249.12 144.037 0l.293.212L288.075 249.48l-.33.148L0 249.48M72.037 124.56l72 41.76m72.166-41.474-72.166 41.474m-.165 83.234.165-83.234" />
          </g>
<g transform="translate(2743, 1281) scale(1 1) rotate(330 145 125)">
            <g ><path d="M.037 249.12 144.037 0l.293.212L288.075 249.48l-.33.148L0 249.48"/><path d="M143.872 249.554 72.39 207.686l-.352-83.126"/><path d="m72.037 124.56 72-40.973 72.166 41.26"/><path d="m216.203 124.846-.517 82.84-71.814 41.868M0 249.48l72.389-41.794M144.037 0v83.587M288.075 249.48l-72.389-41.794"/></g>
          </g>
<g transform="translate(2870, 1499) scale(1 1) rotate(150 145 125)">
            <path d="M.037 249.12 144.037 0l.293.212L288.075 249.48l-.33.148L0 249.48" /><g ><path d="m72.037 124.56 42.357 24.567 59.355.118m42.454-24.399-42.454 24.399-29.78 51.344"/><path d="m143.872 249.554.097-48.965-29.575-51.462"/></g>
          </g>
<g transform="translate(2805, 1611) scale(1 1) rotate(90 145 125)">
            <path d="M.037 249.12 144.037 0l.293.212L288.075 249.48l-.33.148L0 249.48" />
          </g>
<g transform="translate(2870, 1719) scale(1 1) rotate(30 145 125)">
            
          </g>
<g transform="translate(2742, 2186) scale(1 -1) rotate(330 145 125)">
            <path d="M.037 249.12 144.037 0l.293.212L288.075 249.48l-.33.148L0 249.48M192.344 83.67 0 249.48" />
          </g>
<g transform="translate(2807, 2046) scale(1 1) rotate(270 145 125)">
            <path d="M.037 249.12 144.037 0l.293.212L288.075 249.48l-.33.148L0 249.48m0 0L176.44 55.893m-64.805 0 176.44 193.587" />
          </g>
<g transform="translate(2743, 2157) scale(1 1) rotate(330 145 125)">
            <path d="M.037 249.12 144.037 0l.293.212L288.075 249.48l-.33.148L0 249.48" /><g ><path d="m72.037 124.56 42.357 24.567 59.355.118m42.454-24.399-42.454 24.399-29.78 51.344"/><path d="m143.872 249.554.097-48.965-29.575-51.462"/></g>
          </g>
<g transform="translate(2870, 2375) scale(1 1) rotate(150 145 125)">
            <path d="M.037 249.12 144.037 0l.293.212L288.075 249.48l-.33.148L0 249.48M72.037 124.56l72 41.76m72.166-41.474-72.166 41.474m-.165 83.234.165-83.234" />
          </g>
<g transform="translate(2805, 2487) scale(1 1) rotate(90 145 125)">
            <path d="M.037 249.12 144.037 0l.293.212L288.075 249.48l-.33.148L0 249.48" />
          </g>
<g transform="translate(2870, 2595) scale(1 1) rotate(30 145 125)">
            
          </g>
<g transform="translate(2742, 2810) scale(1 1) rotate(210 145 125)">
            <path d="M.037 249.12 144.037 0l.293.212L288.075 249.48l-.33.148L0 249.48" /><g ><path d="m72.037 124.56 42.357 24.567 59.355.118m42.454-24.399-42.454 24.399-29.78 51.344"/><path d="m143.872 249.554.097-48.965-29.575-51.462"/></g>
          </g>
<g transform="translate(2807, 2922) scale(1 1) rotate(270 145 125)">
            
          </g>
<g transform="translate(2997, 620) scale(1 1) rotate(210 145 125)">
            
          </g>
<g transform="translate(3062, 732) scale(1 1) rotate(270 145 125)">
            <path d="M.037 249.12 144.037 0l.293.212L288.075 249.48l-.33.148L0 249.48M72.037 124.56l72 41.76m72.166-41.474-72.166 41.474m-.165 83.234.165-83.234" />
          </g>
<g transform="translate(2998, 843) scale(1 1) rotate(330 145 125)">
            <path d="M.037 249.12 144.037 0l.293.212L288.075 249.48l-.33.148L0 249.48" /><g ><path d="m72.037 124.56 42.357 24.567 59.355.118m42.454-24.399-42.454 24.399-29.78 51.344"/><path d="m143.872 249.554.097-48.965-29.575-51.462"/></g>
          </g>
<g transform="translate(3125, 1061) scale(1 1) rotate(150 145 125)">
            <path d="M.037 249.12 144.037 0l.293.212L288.075 249.48l-.33.148L0 249.48" /><g ><path d="m72.037 124.56 42.357 24.567 59.355.118m42.454-24.399-42.454 24.399-29.78 51.344"/><path d="m143.872 249.554.097-48.965-29.575-51.462"/></g>
          </g>
<g transform="translate(3060, 1173) scale(1 1) rotate(90 145 125)">
            <path d="M.037 249.12 144.037 0l.293.212L288.075 249.48l-.33.148L0 249.48M72.037 124.56l72 41.76m72.166-41.474-72.166 41.474m-.165 83.234.165-83.234" />
          </g>
<g transform="translate(3125, 1281) scale(1 1) rotate(30 145 125)">
            <path d="M.037 249.12 144.037 0l.293.212L288.075 249.48l-.33.148L0 249.48" />
          </g>
<g transform="translate(2997, 1496) scale(1 1) rotate(210 145 125)">
            <path d="M.037 249.12 144.037 0l.293.212L288.075 249.48l-.33.148L0 249.48m47.899-83.16 47.58 83.209m96.628-166.468-95.851-.399m95.851 166.917 48.27-82.81"/>
          </g>
<g transform="translate(3062, 1608) scale(1 1) rotate(270 145 125)">
            <path d="M.037 249.12 144.037 0l.293.212L288.075 249.48l-.33.148L0 249.48M192.344 83.67 0 249.48" />
          </g>
<g transform="translate(2998, 1719) scale(1 1) rotate(330 145 125)">
            
          </g>
<g transform="translate(3125, 1937) scale(1 1) rotate(150 145 125)">
            <path d="M.037 249.12 144.037 0l.293.212L288.075 249.48l-.33.148L0 249.48" /><g ><path d="m72.037 124.56 42.357 24.567 59.355.118m42.454-24.399-42.454 24.399-29.78 51.344"/><path d="m143.872 249.554.097-48.965-29.575-51.462"/></g>
          </g>
<g transform="translate(3060, 2049) scale(1 1) rotate(90 145 125)">
            <path d="M.037 249.12 144.037 0l.293.212L288.075 249.48l-.33.148L0 249.48" />
          </g>
<g transform="translate(3125, 2157) scale(1 1) rotate(30 145 125)">
            
          </g>
<g transform="translate(2997, 2624) scale(1 -1) rotate(330 145 125)">
            <path d="M.037 249.12 144.037 0l.293.212L288.075 249.48l-.33.148L0 249.48M192.344 83.67 0 249.48" />
          </g>
<g transform="translate(3062, 2484) scale(1 1) rotate(270 145 125)">
            <path d="M.037 249.12 144.037 0l.293.212L288.075 249.48l-.33.148L0 249.48m47.899-83.16 47.58 83.209m96.628-166.468-95.851-.399m95.851 166.917 48.27-82.81"/>
          </g>
<g transform="translate(2998, 2595) scale(1 1) rotate(330 145 125)">
            <path d="M.037 249.12 144.037 0l.293.212L288.075 249.48l-.33.148L0 249.48" /><g ><path d="m72.037 124.56 42.357 24.567 59.355.118m42.454-24.399-42.454 24.399-29.78 51.344"/><path d="m143.872 249.554.097-48.965-29.575-51.462"/></g>
          </g>
<g transform="translate(3125, 2813) scale(1 1) rotate(150 145 125)">
            <path d="M.037 249.12 144.037 0l.293.212L288.075 249.48l-.33.148L0 249.48m47.899-83.16 47.58 83.209m96.628-166.468-95.851-.399m95.851 166.917 48.27-82.81"/>
          </g>
<g transform="translate(3060, 2925) scale(1 1) rotate(90 145 125)">
            
          </g>
<g transform="translate(3315, 1611) scale(1 1) rotate(90 145 125)">
            <path d="M.037 249.12 144.037 0l.293.212L288.075 249.48l-.33.148L0 249.48" />
          </g>
<g transform="translate(3380, 1719) scale(1 1) rotate(30 145 125)">
            <path d="M.037 249.12 144.037 0l.293.212L288.075 249.48l-.33.148L0 249.48M192.344 83.67 0 249.48" />
          </g>
</svg>